<svg width="639" height="366" viewBox="0 0 639 366" fill="none" xmlns="http://www.w3.org/2000/svg">
<path d="M199.944 197.627L172.442 116.181L145.994 197.337L125.286 260.806L207.35 219.473L199.948 197.627H199.944ZM199.944 197.627L172.442 116.181L145.994 197.337L125.286 260.806L207.35 219.473L199.948 197.627H199.944ZM0.488159 0.896973V365.102H638.186V0.896973H0.488159ZM242.939 336.03L225.474 282.119H118.777L118.302 282.358L101.73 336.03H11.1035L55.3354 203.585L115.821 22.4484H224.362L281.793 201.997L324.682 336.03H242.936H242.939ZM613.713 336.03H527.829V69.1583L480.092 218.972L442.788 336.033H333.061L288.668 202.504L228.786 22.4517H314.012L371.68 209.756L383.718 248.813L394.993 211.929L453.03 22.4517H613.707V336.033L613.713 336.03ZM172.439 116.181L145.99 197.337L125.283 260.806L207.347 219.473L199.944 197.627L172.442 116.181H172.439Z" fill="#FFE088"/>
</svg>
